<svg width="20" height="22" viewBox="0 0 20 22" fill="none" xmlns="http://www.w3.org/2000/svg">
<path d="M0 7.73912C0 5.68912 -5.96046e-08 4.66521 0.586 4.02825C1.172 3.3913 2.114 3.3913 4 3.3913H16C17.886 3.3913 18.828 3.3913 19.414 4.02825C20 4.66521 20 5.68912 20 7.73912C20 8.25108 20 8.5076 19.854 8.66738C19.707 8.82608 19.47 8.82608 19 8.82608H1C0.529 8.82608 0.293 8.82608 0.146 8.66738C-8.9407e-08 8.5076 0 8.24999 0 7.73912ZM0 17.5217C0 19.5717 -5.96046e-08 20.5956 0.586 21.2326C1.172 21.8696 2.114 21.8696 4 21.8696H16C17.886 21.8696 18.828 21.8696 19.414 21.2326C20 20.5956 20 19.5717 20 17.5217V12.0869C20 11.575 20 11.3185 19.854 11.1587C19.707 11 19.47 11 19 11H1C0.529 11 0.293 11 0.146 11.1587C-8.9407e-08 11.3185 0 11.5761 0 12.0869V17.5217Z" fill="#39C0FF"/>
<path d="M5 1.21738V4.47825M15 1.21738V4.47825" stroke="#39C0FF" stroke-width="2" stroke-linecap="round"/>
</svg>
