<svg width="18" height="18" viewBox="0 0 18 18" fill="none" xmlns="http://www.w3.org/2000/svg">
<g opacity="0.5">
<path d="M8.0475 3.80475C8.36367 3.76808 8.68171 3.7498 9 3.75C12.498 3.75 15.3 5.92725 16.5 9C16.2095 9.74744 15.817 10.4511 15.3337 11.091M4.89 4.88925C3.36 5.823 2.175 7.26975 1.5 9C2.7 12.0728 5.502 14.25 9 14.25C10.4491 14.2576 11.8719 13.863 13.11 13.11M7.41 7.41C7.20105 7.61895 7.0353 7.86701 6.92222 8.14002C6.80914 8.41302 6.75093 8.70563 6.75093 9.00113C6.75093 9.29663 6.80914 9.58923 6.92222 9.86224C7.0353 10.1352 7.20105 10.3833 7.41 10.5923C7.61895 10.8012 7.86701 10.9669 8.14001 11.08C8.41302 11.1931 8.70563 11.2513 9.00113 11.2513C9.29662 11.2513 9.58923 11.1931 9.86224 11.08C10.1352 10.9669 10.3833 10.8012 10.5923 10.5923" stroke="black" stroke-width="2" stroke-linecap="round" stroke-linejoin="round"/>
<path d="M3 3L15 15" stroke="black" stroke-width="2" stroke-linecap="round"/>
</g>
</svg>
