<svg width="29" height="30" viewBox="0 0 29 30" fill="none" xmlns="http://www.w3.org/2000/svg">
<path d="M12.3756 1.25491C12.978 0.772267 13.727 0.509277 14.4989 0.509277C15.2709 0.509277 16.0198 0.772267 16.6223 1.25491L26.8168 9.41051C27.6227 10.0552 28.0926 11.0319 28.0926 12.065V25.6945C28.0926 26.5958 27.7346 27.4601 27.0973 28.0974C26.46 28.7347 25.5957 29.0927 24.6944 29.0927H17.8981C17.5118 29.0927 17.1414 28.9393 16.8683 28.6661C16.5951 28.393 16.4417 28.0226 16.4417 27.6363V17.4418H12.5581V27.6363C12.5581 28.0226 12.4047 28.393 12.1315 28.6661C11.8584 28.9393 11.488 29.0927 11.1017 29.0927H4.30539C3.40414 29.0927 2.53981 28.7347 1.90253 28.0974C1.26525 27.4601 0.907227 26.5958 0.907227 25.6945V12.063C0.907227 11.0319 1.37714 10.0552 2.183 9.41051L12.3756 1.25491ZM14.8028 3.52877C14.7168 3.46008 14.61 3.42266 14.4999 3.42266C14.3898 3.42266 14.283 3.46008 14.197 3.52877L4.00247 11.6844C3.94536 11.73 3.89928 11.7879 3.86768 11.8538C3.83607 11.9197 3.81975 11.9919 3.81994 12.065V25.6945C3.81994 25.9625 4.03742 26.18 4.30539 26.18H9.64537V15.9855C9.64537 15.5992 9.79881 15.2288 10.0719 14.9557C10.345 14.6826 10.7155 14.5291 11.1017 14.5291H17.8981C18.2843 14.5291 18.6547 14.6826 18.9279 14.9557C19.201 15.2288 19.3544 15.5992 19.3544 15.9855V26.18H24.6944C24.8232 26.18 24.9466 26.1288 25.0377 26.0378C25.1287 25.9468 25.1799 25.8233 25.1799 25.6945V12.063C25.1798 11.9903 25.1633 11.9185 25.1317 11.8529C25.1001 11.7874 25.0542 11.7298 24.9973 11.6844L14.8028 3.52877Z" fill="white"/>
</svg>
