<svg width="34" height="34" viewBox="0 0 34 34" fill="none" xmlns="http://www.w3.org/2000/svg">
<g clip-path="url(#clip0_389_1060)">
<path fill-rule="evenodd" clip-rule="evenodd" d="M28.5188 4.47664C27.7218 3.67989 26.641 3.2323 25.5141 3.2323C24.3871 3.2323 23.3063 3.67989 22.5093 4.47664L21.5077 5.47964L28.5202 12.4921L29.5204 11.4906C29.9151 11.0959 30.2283 10.6274 30.4419 10.1117C30.6555 9.59599 30.7655 9.04328 30.7655 8.4851C30.7655 7.92692 30.6555 7.37421 30.4419 6.85853C30.2283 6.34285 29.9151 5.8743 29.5204 5.47964L28.5188 4.47664ZM26.5157 14.4953L19.5032 7.48281L6.62566 20.3617C6.34386 20.6436 6.14701 20.999 6.05758 21.3874L4.59983 27.6986C4.54551 27.9329 4.55174 28.1772 4.61793 28.4084C4.68412 28.6397 4.8081 28.8502 4.97816 29.0203C5.14823 29.1904 5.3588 29.3143 5.59003 29.3805C5.82126 29.4467 6.06553 29.453 6.29983 29.3986L12.6125 27.9423C13.0004 27.8526 13.3553 27.6558 13.6367 27.3742L26.5157 14.4953Z" fill="white"/>
</g>
<defs>
<clipPath id="clip0_389_1060">
<rect width="34" height="34" fill="white"/>
</clipPath>
</defs>
</svg>
